<svg version="1.1" id="scrabble" xmlns="http://www.w3.org/2000/svg" x="0" y="0" viewBox="0 0 412.74 412.74" style="enable-background:new 0 0 412.74 412.74" xml:space="preserve">
    <style>
        .st7{fill:#f1f2f2}
    </style>
    <g id="scrabbleTile">
        <g id="tile">
            <path id="top" d="M347.92 41.27c13.03 0 23.55 10.57 23.55 23.61l-.09 283.04c0 13.03-10.53 23.56-23.56 23.56H64.86c-13.03 0-23.59-10.53-23.59-23.56l.09-283.04c0-13.03 10.57-23.61 23.6-23.61h282.96z" style="fill:#1c75bc"/>
        </g>
        <path class="st7" d="M229.47 142.82h14.34v113.85h71.54v13.25h-85.88v-127.1z" id="L"/>
        <path class="st7" d="M84.5 142.82h44.12c39.95 0 67.54 27.42 67.54 63.19v.36c0 35.77-27.6 63.55-67.54 63.55H84.5v-127.1zm14.34 13.25v100.59h29.78c32.14 0 52.66-21.79 52.66-49.93v-.36c0-28.14-20.52-50.3-52.66-50.3H98.84z" id="D"/>
    </g>
</svg>
