<svg version="1.1" id="scrabble" xmlns="http://www.w3.org/2000/svg" x="0" y="0" viewBox="0 0 412.74 412.74" style="enable-background:new 0 0 412.74 412.74" xml:space="preserve">
    <style>
        .st6{fill:#f1f2f2}
    </style>
    <g id="scrabbleTile">
        <g id="tile">
            <path id="top" d="M347.92 41.27c13.03 0 23.55 10.57 23.55 23.61l-.09 283.04c0 13.03-10.53 23.56-23.56 23.56H64.86c-13.03 0-23.59-10.53-23.59-23.56l.09-283.04c0-13.03 10.57-23.61 23.6-23.61h282.96z" style="fill:#f26522"/>
        </g>
        <path class="st6" d="M209.56 142.55h10.62l24.69 105.86 23.71-106.22h8.03l23.71 106.22 24.69-105.86h10.25l-30.87 128.01h-8.27l-23.71-103.13-23.83 103.13h-8.15l-30.87-128.01z" id="W"/>
        <path class="st6" d="M133.07 156.07H90.4v-13.25h99.86v13.25h-42.67v113.85h-14.53V156.07z" id="T"/>
    </g>
</svg>
