<svg version="1.1" id="scrabble" xmlns="http://www.w3.org/2000/svg" x="0" y="0" viewBox="0 0 412.74 412.74" style="enable-background:new 0 0 412.74 412.74" xml:space="preserve">
    <style>
        .st6{fill:#f1f2f2}
    </style>
    <g id="scrabbleTile">
        <g id="tile">
            <path id="top" d="M347.92 41.27c13.03 0 23.55 10.57 23.55 23.61l-.09 283.04c0 13.03-10.53 23.56-23.56 23.56H64.86c-13.03 0-23.59-10.53-23.59-23.56l.09-283.04c0-13.03 10.57-23.61 23.6-23.61h282.96z" style="fill:#ef4136"/>
        </g>
        <path class="st6" d="M209.56 142.55h10.62l24.69 105.86 23.71-106.22h8.03l23.71 106.22 24.69-105.86h10.25l-30.87 128.01h-8.27l-23.71-103.13-23.83 103.13h-8.15l-30.87-128.01z" id="W"/>
        <path class="st6" d="M84.5 142.82h44.12c39.95 0 67.54 27.42 67.54 63.19v.36c0 35.77-27.6 63.55-67.54 63.55H84.5v-127.1zm14.34 13.25v100.59h29.78c32.14 0 52.66-21.79 52.66-49.93v-.36c0-28.14-20.52-50.3-52.66-50.3H98.84z" id="D"/>
    </g>
</svg>
