<svg version="1.1" id="scrabble" xmlns="http://www.w3.org/2000/svg" x="0" y="0" viewBox="0 0 412.74 412.74" style="enable-background:new 0 0 412.74 412.74" xml:space="preserve">
    <style>
        .text{fill:#414042}
    </style>
    <g id="scrabbleTile">
        <g id="tile">
            <path id="top" d="M383.41 0c16.29 0 29.45 13.21 29.44 29.51l-.11 353.79c-.01 16.29-13.17 29.45-29.46 29.45H29.5C13.21 412.75 0 399.59 0 383.3L.11 29.51C.11 13.21 13.33 0 29.62 0h353.79z" style="fill:#e8d7ba"/>
        </g>
        <path class="text" d="M141.99 111.65H269.6v18.16H161.92v60.27h96.33v18.16h-96.33v61.78h108.94v18.16H141.99V111.65z" id="E"/>
        <path class="text" d="m338.95 321.07-9.23 2.56-1.91-7.33 13.85-4.4h6.23v51.66h-8.94v-42.49z" id="_x31__56_"/>
    </g>
</svg>
