<svg version="1.1" id="scrabble" xmlns="http://www.w3.org/2000/svg" x="0" y="0" viewBox="0 0 412.74 412.74" style="enable-background:new 0 0 412.74 412.74" xml:space="preserve">
    <g id="scrabbleTile">
        <g id="tile">
            <path id="top" d="M383.41 0c16.29 0 29.45 13.21 29.44 29.51l-.11 353.79c-.01 16.29-13.17 29.45-29.46 29.45H29.5C13.21 412.75 0 399.59 0 383.3L.11 29.51C.11 13.21 13.33 0 29.62 0h353.79z" style="fill:#e8d7ba"/>
        </g>
        <path d="m151.7 258.16 14.37-12.36c10.84 16.39 21.94 25.22 40.35 25.22 19.92 0 34.55-14.37 34.55-42.37V110.38h20.17V228.4c0 20.68-6.05 36.31-16.14 46.4-9.83 9.58-23.2 14.63-38.84 14.63-26.47 0-43.36-13.11-54.46-31.27z" id="J" style="fill:#414042"/>
    </g>
</svg>
