<svg version="1.1" id="scrabble" xmlns="http://www.w3.org/2000/svg" x="0" y="0" viewBox="0 0 412.74 412.74" style="enable-background:new 0 0 412.74 412.74" xml:space="preserve">
    <style>
        .st4{fill:#414042}
    </style>
    <g id="scrabbleTile">
        <g id="highlightedTile">
            <path id="top" d="M383.41 0c16.29 0 29.45 13.21 29.44 29.51l-.11 353.79c-.01 16.29-13.17 29.45-29.46 29.45H29.5C13.2 412.74 0 399.58 0 383.29L.11 29.51C.11 13.21 13.33 0 29.62 0h353.79z" style="fill:#00aeef"/>
        </g>
        <path class="st4" d="M135.18 111.65h75.15c20.17 0 36.06 5.8 46.15 15.64 7.31 7.57 11.35 16.9 11.35 28.24v.5c0 22.95-14.12 34.8-27.99 40.85 20.93 6.3 37.83 18.41 37.83 42.62v.5c0 30.26-25.47 48.17-64.05 48.17h-78.43V111.65zm112.48 46.65c0-17.4-13.87-28.75-39.09-28.75h-53.71v60.78h52.2c23.96 0 40.6-10.84 40.6-31.52v-.51zm-37.07 49.68h-55.73v62.29h59.26c26.73 0 43.38-11.85 43.38-31.52v-.5c-.01-19.17-16.15-30.27-46.91-30.27z" id="B"/>
        <g id="_x34_">
            <path class="st4" d="M343.64 352.07h-25.87l-1.69-6.45 28.5-33.71h7.69v32.75h7.33v7.4h-7.33v11.5h-8.65v-11.49zm0-7.4v-20.3l-16.85 20.3h16.85z"/>
            54.81z&quot;/&gt;
        </g>
    </g>
</svg>
