<svg version="1.1" id="scrabble" xmlns="http://www.w3.org/2000/svg" x="0" y="0" viewBox="0 0 412.74 412.74" style="enable-background:new 0 0 412.74 412.74" xml:space="preserve">
    <g id="scrabbleTile">
        <g id="highlightedTile">
            <path id="top" d="M383.41 0c16.29 0 29.45 13.21 29.44 29.51l-.11 353.79c-.01 16.29-13.17 29.45-29.46 29.45H29.5C13.2 412.74 0 399.58 0 383.29L.11 29.51C.11 13.21 13.33 0 29.62 0h353.79z" style="fill:#00aeef"/>
        </g>
        <path d="M128.88 111.65h61.28c55.48 0 93.81 38.08 93.81 87.76v.5c0 49.68-38.33 88.26-93.81 88.26h-61.28V111.65zm19.92 18.41v139.71h41.36c44.64 0 73.13-30.26 73.13-69.35v-.5c0-39.09-28.5-69.85-73.13-69.85H148.8z" id="D" style="fill:#414042"/>
    </g>
</svg>
