<svg version="1.1" id="scrabble" xmlns="http://www.w3.org/2000/svg" x="0" y="0" viewBox="0 0 412.74 412.74" style="enable-background:new 0 0 412.74 412.74" xml:space="preserve">
    <style>
        .text{fill:#414042}
    </style>
    <g id="scrabbleTile">
        <g id="tile">
            <path id="top" d="M383.41 0c16.29 0 29.45 13.21 29.44 29.51l-.11 353.79c-.01 16.29-13.17 29.45-29.46 29.45H29.5C13.21 412.75 0 399.59 0 383.3L.11 29.51C.11 13.21 13.33 0 29.62 0h353.79z" style="fill:#e8d7ba"/>
        </g>
        <path class="text" d="M135.56 111.65h19.92v78.43h101.88v-78.43h19.92v176.53h-19.92v-79.44H155.48v79.44h-19.92V111.65z" id="H"/>
        <path class="text" d="m319.06 354.81 6.3-5.86c3.66 4.32 7.77 6.74 13.48 6.74 5.06 0 8.87-3.08 8.87-7.77v-.15c0-5.06-4.62-7.91-11.8-7.91h-4.18l-1.47-5.64 13.85-14.73h-22.2v-7.84h33.93v6.74l-14.29 14.65c7.77.95 15.09 4.91 15.09 14.36v.15c0 9.45-7.25 16.27-17.95 16.27-8.94.01-15.31-3.73-19.63-9.01z" id="_x33_"/>
    </g>
</svg>
