<svg version="1.1" id="scrabble" xmlns="http://www.w3.org/2000/svg" x="0" y="0" viewBox="0 0 412.74 412.74" style="enable-background:new 0 0 412.74 412.74" xml:space="preserve">
    <style>
        .text{fill:#414042}
    </style>
    <g id="scrabbleTile">
        <g id="highlightedTile">
            <path id="top" d="M383.41 0c16.29 0 29.45 13.21 29.44 29.51l-.11 353.79c-.01 16.29-13.17 29.45-29.46 29.45H29.5C13.2 412.74 0 399.58 0 383.29L.11 29.51C.11 13.21 13.33 0 29.62 0h353.79z" style="fill:#00aeef"/>
        </g>
        <path class="text" d="M78.06 111.27h21.69l50.44 147.02 48.42-147.53H215l48.42 147.53 50.44-147.02h20.93l-63.05 177.79h-16.9l-48.42-143.24-48.67 143.24h-16.64L78.06 111.27z" id="W"/>
        <g id="_x34_">
            <path class="text" d="M343.64 352.07h-25.87l-1.69-6.45 28.5-33.71h7.69v32.75h7.33v7.4h-7.33v11.5h-8.65v-11.49zm0-7.4v-20.3l-16.85 20.3h16.85z"/>
            54.81z&quot;/&gt;
        </g>
    </g>
</svg>
