<svg version="1.1" id="scrabble" xmlns="http://www.w3.org/2000/svg" x="0" y="0" viewBox="0 0 412.74 412.74" style="enable-background:new 0 0 412.74 412.74" xml:space="preserve">
    <style>
        .st0{display:none}.st3{fill:#414042}.st3,.st5{display:inline}
    </style>
    <g id="scrabbleTile">
        <g id="tile">
            <path id="top" d="M383.41 0c16.29 0 29.45 13.21 29.44 29.51l-.11 353.79c-.01 16.29-13.17 29.45-29.46 29.45H29.5C13.21 412.75 0 399.59 0 383.3L.11 29.51C.11 13.21 13.33 0 29.62 0h353.79z" style="fill:#e8d7ba"/>
        </g>
        <path d="m283.97 292.33-23.45-20.93c-14.88 11.6-33.79 18.66-55.48 18.66-53.71 0-89.78-42.12-89.78-90.79v-.5c0-48.67 36.57-91.29 90.28-91.29s89.78 42.11 89.78 90.79v.5c0 21.94-7.82 42.87-20.93 59.01l23.2 19.67-13.62 14.88zm-37.57-33.79-33.04-28.24 13.37-14.88 33.04 30.01c9.58-12.61 14.88-28.5 14.88-46.15v-.5c0-40.1-29.25-72.88-69.6-72.88-40.35 0-69.1 32.28-69.1 72.38v.5c0 40.1 29.25 72.88 69.6 72.88 15.63-.01 29.75-4.8 40.85-13.12z" id="Q" style="fill:#414042"/>
    </g>
</svg>
