<svg version="1.1" id="scrabble" xmlns="http://www.w3.org/2000/svg" x="0" y="0" viewBox="0 0 412.74 412.74" style="enable-background:new 0 0 412.74 412.74" xml:space="preserve">
    <style>
        .st4{fill:#414042}
    </style>
    <g id="scrabbleTile">
        <g id="tile">
            <path id="top" d="M383.41 0c16.29 0 29.45 13.21 29.44 29.51l-.11 353.79c-.01 16.29-13.17 29.45-29.46 29.45H29.5C13.21 412.75 0 399.59 0 383.3L.11 29.51C.11 13.21 13.33 0 29.62 0h353.79z" style="fill:#e8d7ba"/>
        </g>
        <path class="st4" d="M131.27 111.65h19.92v105.41l101.38-105.41h25.72l-75.65 77.17 78.93 99.36H256.6l-67.84-85.49-37.58 38.08v47.41h-19.92V111.65z" id="K"/>
        <path class="st4" d="m318.91 355.99 5.57-6.52c4.1 3.81 8.43 6.15 13.19 6.15 6.16 0 10.18-3.52 10.18-8.87v-.15c0-5.2-4.4-8.5-10.62-8.5-3.66 0-6.82 1.03-9.45 2.27l-5.42-3.59 1.47-25.13h30.7v7.99h-22.94l-.81 12.02c2.42-.88 4.69-1.47 8.13-1.47 9.96 0 17.88 5.28 17.88 16.12v.15c0 10.48-7.69 17.37-19.05 17.37-7.84 0-13.99-3.15-18.83-7.84z" id="_x35_"/>
    </g>
</svg>
