<svg version="1.1" id="scrabble" xmlns="http://www.w3.org/2000/svg" x="0" y="0" viewBox="0 0 412.74 412.74" style="enable-background:new 0 0 412.74 412.74" xml:space="preserve">
    <style>
        .text{fill:#414042}
    </style>
    <g id="scrabbleTile">
        <g id="highlightedTile">
            <path id="top" d="M383.41 0c16.29 0 29.45 13.21 29.44 29.51l-.11 353.79c-.01 16.29-13.17 29.45-29.46 29.45H29.5C13.2 412.74 0 399.58 0 383.29L.11 29.51C.11 13.21 13.33 0 29.62 0h353.79z" style="fill:#00aeef"/>
        </g>
        <path class="text" d="m283.72 111.65-65.06 86.5 67.58 90.03h-23.7l-56.49-76.16-56.49 76.16h-22.95l67.58-90.03-65.06-86.5h23.45l53.97 72.63 53.97-72.63h23.2z" id="X"/>
        <g id="_x38_">
            <path class="text" d="M318.29 349.39v-.15c0-6.16 3.44-10.04 9.23-12.46-4.32-2.27-7.47-5.71-7.47-11.43v-.14c0-7.84 7.55-13.85 17.81-13.85 10.26 0 17.81 5.94 17.81 13.85v.14c0 5.71-3.15 9.16-7.47 11.43 5.64 2.56 9.23 6.23 9.23 12.31v.15c0 9.16-8.35 14.88-19.56 14.88-11.23 0-19.58-5.86-19.58-14.73zm30.33-.51v-.15c0-4.69-4.69-7.77-10.77-7.77-6.08 0-10.7 3.08-10.7 7.77v.15c0 4.18 3.96 7.69 10.7 7.69 6.74 0 10.77-3.44 10.77-7.69zm-1.61-22.64v-.15c0-3.96-3.66-7.18-9.16-7.18s-9.16 3.22-9.16 7.11v.15c0 4.47 3.88 7.62 9.16 7.62s9.16-3.15 9.16-7.55z"/>
            C329.9,363.83,323.75,360.68,318.91,355.99z&quot;/&gt;
        </g>
    </g>
</svg>
