<?xml version="1.0" encoding="utf-8"?>

<svg version="1.1" id="scrabble" xmlns="http://www.w3.org/2000/svg" x="0px" y="0px"
     viewBox="0 0 412.74 412.74" style="enable-background:new 0 0 412.74 412.74;" xml:space="preserve">
<style type="text/css">
	.st0{fill:#00AEEF;}
	.st1{display:none;}
	.st2{display:inline;fill:#E8D7BA;}
	.st3{display:inline;fill:#414042;}
	.st4{fill:#414042;}
	.st5{display:inline;}
</style>
<g id="scrabbleTile">
	<g id="highlightedTile">
		<path id="top" class="st0" d="M383.41,0c16.29,0,29.45,13.21,29.44,29.51l-0.11,353.79c-0.01,16.29-13.17,29.45-29.46,29.45H29.5
			C13.2,412.74,0,399.58,0,383.29L0.11,29.51C0.11,13.21,13.33,0,29.62,0H383.41z"/>
	</g>
	<g id="tile_00000029007655792493338070000015857826428044154035_" class="st1">
		<path id="top_00000111908945748028226780000004154523604860632498_" class="st2" d="M383.41,0c16.29,0,29.45,13.21,29.44,29.51
			l-0.11,353.79c-0.01,16.29-13.17,29.45-29.46,29.45H29.5c-16.29,0-29.5-13.16-29.5-29.45L0.11,29.51C0.11,13.21,13.33,0,29.62,0
			H383.41z"/>
	</g>
	<g id="Z" class="st1">
		<path class="st3" d="M135.69,274.81l114.24-145.26H139.47v-17.9h137.69v13.37L162.67,270.27h114.49v17.91H135.69V274.81z"/>
	</g>
	<g id="Y" class="st1">
		<path class="st3" d="M196.34,218.32l-73.38-106.67h24.21l59.51,88.26l60.02-88.26h23.2l-73.38,106.42v70.11h-20.17V218.32z"/>
	</g>
	<g id="X" class="st1">
		<path class="st3" d="M283.72,111.65l-65.06,86.5l67.58,90.03h-23.7l-56.49-76.16l-56.49,76.16h-22.95l67.58-90.03l-65.06-86.5
			h23.45l53.97,72.63l53.97-72.63H283.72z"/>
	</g>
	<g id="W" class="st1">
		<path class="st3" d="M78.06,111.27h21.69l50.44,147.02l48.42-147.53H215l48.42,147.53l50.44-147.02h20.93l-63.05,177.79h-16.9
			l-48.42-143.24l-48.67,143.24h-16.64L78.06,111.27z"/>
	</g>
	<g id="V" class="st1">
		<path class="st3" d="M121.69,111.01h22.19l62.79,152.07l63.05-152.07h21.44L215.25,288.8H197.6L121.69,111.01z"/>
	</g>
	<g id="U" class="st1">
		<path class="st3" d="M132.91,212.9V110.26h19.92v101.38c0,38.08,20.43,59.51,53.97,59.51c32.53,0,53.21-19.67,53.21-58.25V110.26
			h19.92v101.12c0,51.45-29.51,78.18-73.64,78.18C162.67,289.56,132.91,262.83,132.91,212.9z"/>
	</g>
	<g id="T" class="st1">
		<path class="st3" d="M196.34,130.05h-59.26v-18.41h138.7v18.41h-59.26v158.12h-20.17V130.05z"/>
	</g>
	<g id="S">
		<path class="st4" d="M140.23,262.45l12.36-14.63c18.41,16.64,36.06,24.97,60.52,24.97c23.71,0,39.34-12.61,39.34-30.01v-0.51
			c0-16.39-8.83-25.72-45.9-33.54c-40.6-8.83-59.26-21.94-59.26-50.94v-0.5c0-27.74,24.46-48.17,58-48.17
			c25.72,0,44.13,7.31,62.04,21.69l-11.6,15.38c-16.39-13.37-32.78-19.17-50.94-19.17c-22.95,0-37.57,12.61-37.57,28.5v0.5
			c0,16.64,9.08,25.97,47.91,34.3c39.34,8.57,57.5,22.95,57.5,49.93v0.51c0,30.26-25.22,49.93-60.27,49.93
			C184.36,290.69,161.41,281.36,140.23,262.45z"/>
	</g>
	<g id="R" class="st1">
		<path class="st3" d="M133.42,111.65h75.91c21.69,0,39.09,6.56,50.18,17.65c8.57,8.57,13.62,20.93,13.62,34.8v0.5
			c0,29.25-20.17,46.4-47.91,51.45l54.22,72.12h-24.46l-51.19-68.59h-50.44v68.59h-19.92V111.65z M207.56,201.68
			c26.48,0,45.39-13.62,45.39-36.31v-0.5c0-21.69-16.64-34.8-45.14-34.8h-54.47v71.62H207.56z"/>
	</g>
	<g id="Q" class="st1">
		<path class="st3" d="M283.97,292.33l-23.45-20.93c-14.88,11.6-33.79,18.66-55.48,18.66c-53.71,0-89.78-42.12-89.78-90.79v-0.5
			c0-48.67,36.57-91.29,90.28-91.29c53.71,0,89.78,42.11,89.78,90.79v0.5c0,21.94-7.82,42.87-20.93,59.01l23.2,19.67L283.97,292.33z
			 M246.4,258.54l-33.04-28.24l13.37-14.88l33.04,30.01c9.58-12.61,14.88-28.5,14.88-46.15v-0.5c0-40.1-29.25-72.88-69.6-72.88
			c-40.35,0-69.1,32.28-69.1,72.38v0.5c0,40.1,29.25,72.88,69.6,72.88C221.18,271.65,235.3,266.86,246.4,258.54z"/>
	</g>
	<g id="P" class="st1">
		<path class="st3" d="M140.35,111.65h66.07c39.84,0,66.07,21.18,66.07,55.98v0.5c0,38.08-31.77,57.75-69.35,57.75h-42.87v62.29
			h-19.92V111.65z M203.9,207.73c29.25,0,48.42-15.63,48.42-38.84v-0.5c0-25.22-18.91-38.33-47.41-38.33h-44.64v77.67H203.9z"/>
	</g>
	<g id="O" class="st1">
		<path class="st3" d="M116.4,200.41v-0.5c0-48.67,36.57-91.29,90.28-91.29c53.71,0,89.78,42.11,89.78,90.79v0.5
			c0,48.67-36.57,91.29-90.28,91.29C152.46,291.2,116.4,249.08,116.4,200.41z M275.78,200.41v-0.5c0-40.1-29.25-72.88-69.6-72.88
			c-40.35,0-69.1,32.28-69.1,72.38v0.5c0,40.1,29.25,72.88,69.6,72.88C247.03,272.79,275.78,240.51,275.78,200.41z"/>
	</g>
	<g id="N" class="st1">
		<path class="st3" d="M131.78,111.65h18.66l111.21,141.47V111.65h19.42v176.53h-15.89L151.2,143.42v144.75h-19.42V111.65z"/>
	</g>
	<g id="M" class="st1">
		<path class="st3" d="M121.94,111.65h20.17l64.31,96.33l64.31-96.33h20.17v176.53h-19.92V145.19l-64.31,94.57h-1.01l-64.31-94.32
			v142.73h-19.42V111.65z"/>
	</g>
	<g id="L" class="st1">
		<path class="st3" d="M146.78,111.65h19.92v158.12h99.36v18.41H146.78V111.65z"/>
	</g>
	<g id="K" class="st1">
		<path class="st3" d="M131.27,111.65h19.92v105.41l101.38-105.41h25.72l-75.65,77.17l78.93,99.36h-24.97l-67.84-85.49l-37.58,38.08
			v47.41h-19.92V111.65z"/>
	</g>
	<g id="J" class="st1">
		<path class="st3" d="M151.7,258.16l14.37-12.36c10.84,16.39,21.94,25.22,40.35,25.22c19.92,0,34.55-14.37,34.55-42.37V110.38
			h20.17v118.02c0,20.68-6.05,36.31-16.14,46.4c-9.83,9.58-23.2,14.63-38.84,14.63C179.69,289.43,162.8,276.32,151.7,258.16z"/>
	</g>
	<g id="I" class="st1">
		<path class="st3" d="M196.46,111.65h19.92v176.53h-19.92V111.65z"/>
	</g>
	<g id="H" class="st1">
		<path class="st3" d="M135.56,111.65h19.92v78.43h101.88v-78.43h19.92v176.53h-19.92v-79.44H155.48v79.44h-19.92V111.65z"/>
	</g>
	<g id="G" class="st1">
		<path class="st3" d="M126.11,200.41v-0.5c0-48.42,35.56-91.29,88.52-91.29c29.76,0,48.17,8.57,65.82,23.45l-12.86,15.13
			c-13.62-11.85-28.75-20.17-53.71-20.17c-39.09,0-67.08,33.04-67.08,72.38v0.5c0,42.11,26.98,73.38,69.85,73.38
			c20.17,0,38.84-7.82,50.94-17.65v-43.88h-53.71v-17.9h72.88v70.36c-16.39,14.63-41.11,26.98-70.86,26.98
			C160.4,291.2,126.11,250.85,126.11,200.41z"/>
	</g>
	<g id="F" class="st1">
		<path class="st3" d="M143,111.65h126.85v18.41H162.92v63.05h95.58v18.16h-95.58v76.92H143V111.65z"/>
	</g>
	<g id="E" class="st1">
		<path class="st3" d="M141.99,111.65H269.6v18.16H161.92v60.27h96.33v18.16h-96.33v61.78h108.94v18.16H141.99V111.65z"/>
	</g>
	<g id="D" class="st1">
		<path class="st3" d="M128.88,111.65h61.28c55.48,0,93.81,38.08,93.81,87.76v0.5c0,49.68-38.33,88.26-93.81,88.26h-61.28V111.65z
			 M148.8,130.06v139.71h41.36c44.64,0,73.13-30.26,73.13-69.35v-0.5c0-39.09-28.5-69.85-73.13-69.85H148.8z"/>
	</g>
	<g id="C" class="st1">
		<path class="st3" d="M126.86,200.41v-0.5c0-49.93,37.32-91.29,89.27-91.29c32.03,0,51.19,11.35,68.85,27.99l-13.62,14.63
			c-14.88-14.12-31.52-24.21-55.48-24.21c-39.09,0-68.34,31.78-68.34,72.38v0.5c0,40.85,29.5,72.88,68.34,72.88
			c24.21,0,40.1-9.33,56.99-25.47l13.11,12.86c-18.41,18.66-38.58,31.02-70.61,31.02C164.44,291.2,126.86,251.1,126.86,200.41z"/>
	</g>
	<g id="B" class="st1">
		<path class="st3" d="M135.18,111.65h75.15c20.17,0,36.06,5.8,46.15,15.64c7.31,7.57,11.35,16.9,11.35,28.24v0.5
			c0,22.95-14.12,34.8-27.99,40.85c20.93,6.3,37.83,18.41,37.83,42.62v0.5c0,30.26-25.47,48.17-64.05,48.17h-78.43V111.65z
			 M247.66,158.3c0-17.4-13.87-28.75-39.09-28.75h-53.71v60.78h52.2c23.96,0,40.6-10.84,40.6-31.52V158.3z M210.59,207.98h-55.73
			v62.29h59.26c26.73,0,43.38-11.85,43.38-31.52v-0.5C257.49,219.08,241.35,207.98,210.59,207.98z"/>
	</g>
	<g id="A" class="st1">
		<path class="st3" d="M197.09,111.02h18.66L296.2,288.8h-21.44l-20.68-46.65h-96.08l-20.93,46.65h-20.43L197.09,111.02z
			 M246.27,223.99l-40.1-89.78l-40.35,89.78H246.27z"/>
	</g>
	<g id="_x31_0" class="st1">
		<g class="st5">
			<g>
				<path class="st4" d="M330.2,334.71l-6.59,1.83l-1.36-5.23l9.89-3.14h4.45v36.9h-6.39V334.71z"/>
				<path class="st4" d="M344.59,346.86v-0.11c0-10.47,6.38-18.95,16.02-18.95c9.58,0,15.91,8.37,15.91,18.84v0.1
					c0,10.47-6.38,18.95-16.02,18.95C350.87,365.7,344.59,357.32,344.59,346.86z M369.87,346.86v-0.11c0-7.22-3.72-13.14-9.37-13.14
					c-5.65,0-9.26,5.76-9.26,13.03v0.1c0,7.22,3.66,13.14,9.37,13.14C366.31,359.89,369.87,354.03,369.87,346.86z"/>
			</g>
		</g>
	</g>
	<g id="_x38_" class="st1">
		<g class="st5">
			<g>
				<path class="st4" d="M335.41,355.07v-0.11c0-4.4,2.46-7.17,6.59-8.9c-3.09-1.62-5.34-4.08-5.34-8.16v-0.1
					c0-5.6,5.39-9.89,12.72-9.89c7.33,0,12.72,4.24,12.72,9.89v0.1c0,4.08-2.25,6.54-5.34,8.16c4.03,1.83,6.59,4.45,6.59,8.79v0.11
					c0,6.54-5.97,10.62-13.97,10.62C341.37,365.59,335.41,361.41,335.41,355.07z M357.07,354.71v-0.11c0-3.35-3.35-5.55-7.69-5.55
					c-4.34,0-7.64,2.2-7.64,5.55v0.11c0,2.98,2.83,5.5,7.64,5.5C354.19,360.2,357.07,357.74,357.07,354.71z M355.92,338.54v-0.11
					c0-2.83-2.62-5.13-6.54-5.13s-6.54,2.3-6.54,5.08v0.11c0,3.19,2.77,5.44,6.54,5.44C353.15,343.93,355.92,341.68,355.92,338.54z"
					/>
			</g>
		</g>
	</g>
	<g id="_x35_" class="st1">
		<g class="st5">
			<g>
				<path class="st4" d="M335.85,359.78l3.98-4.66c2.93,2.72,6.02,4.4,9.42,4.4c4.4,0,7.27-2.51,7.27-6.33v-0.1
					c0-3.72-3.14-6.07-7.59-6.07c-2.62,0-4.87,0.73-6.75,1.62l-3.87-2.56l1.05-17.95h21.93v5.7H344.9l-0.58,8.58
					c1.73-0.63,3.35-1.05,5.81-1.05c7.12,0,12.77,3.77,12.77,11.51v0.11c0,7.48-5.5,12.4-13.61,12.4
					C343.7,365.38,339.3,363.13,335.85,359.78z"/>
			</g>
		</g>
	</g>
	<g id="_x34_" class="st1">
		<g class="st5">
			<g>
				<path class="st4" d="M353.51,356.98h-18.48l-1.2-4.61l20.36-24.08h5.5v23.4h5.23v5.29h-5.23v8.22h-6.18V356.98z M353.51,351.7
					v-14.5l-12.04,14.5H353.51z"/>
			</g>
		</g>
	</g>
	<g id="_x33_" class="st1">
		<g class="st5">
			<g>
				<path class="st4" d="M335.95,358.95l4.5-4.19c2.62,3.09,5.55,4.81,9.63,4.81c3.61,0,6.33-2.2,6.33-5.55v-0.1
					c0-3.61-3.3-5.65-8.43-5.65h-2.98l-1.05-4.03l9.89-10.52H338v-5.6h24.23v4.81l-10.21,10.47c5.55,0.68,10.78,3.51,10.78,10.26
					v0.11c0,6.75-5.18,11.62-12.82,11.62C343.6,365.38,339.04,362.72,335.95,358.95z"/>
			</g>
		</g>
	</g>
	<g id="_x32_" class="st1">
		<g class="st5">
			<g>
				<path class="st4" d="M336.14,360.26l12.61-10.73c5.02-4.29,6.86-6.59,6.86-9.89c0-3.61-2.56-5.7-5.91-5.7
					c-3.35,0-5.65,1.83-8.43,5.5l-4.61-3.61c3.51-4.87,6.96-7.64,13.5-7.64c7.17,0,12.09,4.4,12.09,10.94v0.1
					c0,5.76-3.04,8.9-9.53,14.18l-7.54,6.28h17.43v5.65h-26.48V360.26z"/>
			</g>
		</g>
	</g>
	<g id="_x31__56_">
		<g>
			<g>
				<path class="st4" d="M350.16,334.85l-6.59,1.83l-1.36-5.23l9.89-3.14h4.45v36.9h-6.39V334.85z"/>
			</g>
		</g>
	</g>
</g>
</svg>
