<svg version="1.1" id="scrabble" xmlns="http://www.w3.org/2000/svg" x="0" y="0" viewBox="0 0 412.74 412.74" style="enable-background:new 0 0 412.74 412.74" xml:space="preserve">
    <style>
        .st4{fill:#414042}
    </style>
    <g id="scrabbleTile">
        <g id="highlightedTile">
            <path id="top" d="M383.41 0c16.29 0 29.45 13.21 29.44 29.51l-.11 353.79c-.01 16.29-13.17 29.45-29.46 29.45H29.5C13.2 412.74 0 399.58 0 383.29L.11 29.51C.11 13.21 13.33 0 29.62 0h353.79z" style="fill:#00aeef"/>
        </g>
        <path class="st4" d="M132.91 212.9V110.26h19.92v101.38c0 38.08 20.43 59.51 53.97 59.51 32.53 0 53.21-19.67 53.21-58.25V110.26h19.92v101.12c0 51.45-29.51 78.18-73.64 78.18-43.62 0-73.38-26.73-73.38-76.66z" id="U"/>
        <path class="st4" d="m319.31 356.65 17.66-15.02c7.03-6.01 9.6-9.23 9.6-13.85 0-5.06-3.59-7.99-8.28-7.99-4.69 0-7.91 2.56-11.8 7.69l-6.45-5.06c4.91-6.81 9.75-10.7 18.9-10.7 10.04 0 16.93 6.16 16.93 15.31v.15c0 8.06-4.25 12.46-13.34 19.86l-10.55 8.79h24.4v7.91H319.3v-7.09z" id="_x32_"/>
    </g>
</svg>
