<svg version="1.1" id="scrabble" xmlns="http://www.w3.org/2000/svg" x="0" y="0" viewBox="0 0 412.74 412.74" style="enable-background:new 0 0 412.74 412.74" xml:space="preserve">
    <style>
        .text{fill:#414042}
    </style>
    <g id="scrabbleTile">
        <g id="tile">
            <path id="top" d="M383.41 0c16.29 0 29.45 13.21 29.44 29.51l-.11 353.79c-.01 16.29-13.17 29.45-29.46 29.45H29.5C13.21 412.75 0 399.59 0 383.3L.11 29.51C.11 13.21 13.33 0 29.62 0h353.79z" style="fill:#e8d7ba"/>
        </g>
        <path class="text" d="m135.69 274.81 114.24-145.26H139.47v-17.9h137.69v13.37L162.67 270.27h114.49v17.91H135.69v-13.37z" id="Z"/>
        <path class="text" d="m311 320.89-9.23 2.56-1.91-7.33 13.85-4.4h6.23v51.66H311v-42.49zm20.15 17v-.15c0-14.65 8.94-26.52 22.42-26.52 13.41 0 22.27 11.72 22.27 26.38v.14c0 14.66-8.94 26.53-22.42 26.53-13.48 0-22.27-11.73-22.27-26.38zm35.39 0v-.15c0-10.11-5.2-18.39-13.12-18.39-7.91 0-12.97 8.06-12.97 18.25v.14c0 10.11 5.13 18.39 13.12 18.39 7.99 0 12.97-8.2 12.97-18.24z" id="_x31_0"/>
    </g>
</svg>
