<svg version="1.1" id="scrabble" xmlns="http://www.w3.org/2000/svg" x="0" y="0" viewBox="0 0 438.47 438.47" style="enable-background:new 0 0 438.47 438.47" xml:space="preserve">
    <style>
        .st2{display:none}.st5{fill:#414042}.st5,.st7{display:inline}
    </style>
    <g id="scrabbleTile">
        <g id="highlightedTile">
            <path id="side" d="M429.94 34.34 404.21 8.62a29.45 29.45 0 0 1 8.64 20.89l-.11 353.79c-.01 16.29-13.17 29.45-29.46 29.45H29.5c-8.16 0-15.54-3.3-20.88-8.64l25.72 25.73a29.45 29.45 0 0 0 20.89 8.64h353.79c16.29 0 29.46-13.16 29.46-29.45l.11-353.79c-.12-8.16-3.31-15.55-8.65-20.9z" style="fill:#1c75bc"/>
            <path id="top" d="M383.41 0c16.29 0 29.45 13.21 29.44 29.51l-.11 353.79c-.01 16.29-13.17 29.45-29.46 29.45H29.5C13.2 412.74 0 399.58 0 383.29L.11 29.51C.11 13.21 13.33 0 29.62 0h353.79z" style="fill:#00aeef"/>
        </g>
        <path d="M132.91 212.9V110.26h19.92v101.38c0 38.08 20.43 59.51 53.97 59.51 32.53 0 53.21-19.67 53.21-58.25V110.26h19.92v101.12c0 51.45-29.51 78.18-73.64 78.18-43.62 0-73.38-26.73-73.38-76.66z" id="U" style="fill:#414042"/>
    </g>
</svg>
