<svg version="1.1" id="scrabble" xmlns="http://www.w3.org/2000/svg" x="0" y="0" viewBox="0 0 438.47 438.47" style="enable-background:new 0 0 438.47 438.47" xml:space="preserve">
    <style>
        .text{fill:#414042}
    </style>
    <g id="scrabbleTile">
        <g id="highlightedTile">
            <path id="side" d="M429.94 34.34 404.21 8.62a29.45 29.45 0 0 1 8.64 20.89l-.11 353.79c-.01 16.29-13.17 29.45-29.46 29.45H29.5c-8.16 0-15.54-3.3-20.88-8.64l25.72 25.73a29.45 29.45 0 0 0 20.89 8.64h353.79c16.29 0 29.46-13.16 29.46-29.45l.11-353.79c-.12-8.16-3.31-15.55-8.65-20.9z" style="fill:#1c75bc"/>
            <path id="top" d="M383.41 0c16.29 0 29.45 13.21 29.44 29.51l-.11 353.79c-.01 16.29-13.17 29.45-29.46 29.45H29.5C13.2 412.74 0 399.58 0 383.29L.11 29.51C.11 13.21 13.33 0 29.62 0h353.79z" style="fill:#00aeef"/>
        </g>
        <path class="text" d="M126.86 200.41v-.5c0-49.93 37.32-91.29 89.27-91.29 32.03 0 51.19 11.35 68.85 27.99l-13.62 14.63c-14.88-14.12-31.52-24.21-55.48-24.21-39.09 0-68.34 31.78-68.34 72.38v.5c0 40.85 29.5 72.88 68.34 72.88 24.21 0 40.1-9.33 56.99-25.47l13.11 12.86c-18.41 18.66-38.58 31.02-70.61 31.02-50.93 0-88.51-40.1-88.51-90.79z" id="C"/>
        <g id="_x34_">
            <path class="text" d="M343.64 352.07h-25.87l-1.69-6.45 28.5-33.71h7.69v32.75h7.33v7.4h-7.33v11.5h-8.65v-11.49zm0-7.4v-20.3l-16.85 20.3h16.85z"/>
            54.81z&quot;/&gt;
        </g>
    </g>
</svg>
