<svg version="1.1" id="scrabble" xmlns="http://www.w3.org/2000/svg" x="0" y="0" viewBox="0 0 438.47 438.47" style="enable-background:new 0 0 438.47 438.47" xml:space="preserve">
    <style>
        .text{fill:#414042}
    </style>
    <g id="scrabbleTile">
        <g id="highlightedTile">
            <path id="side" d="M429.94 34.34 404.21 8.62a29.45 29.45 0 0 1 8.64 20.89l-.11 353.79c-.01 16.29-13.17 29.45-29.46 29.45H29.5c-8.16 0-15.54-3.3-20.88-8.64l25.72 25.73a29.45 29.45 0 0 0 20.89 8.64h353.79c16.29 0 29.46-13.16 29.46-29.45l.11-353.79c-.12-8.16-3.31-15.55-8.65-20.9z" style="fill:#1c75bc"/>
            <path id="top" d="M383.41 0c16.29 0 29.45 13.21 29.44 29.51l-.11 353.79c-.01 16.29-13.17 29.45-29.46 29.45H29.5C13.2 412.74 0 399.58 0 383.29L.11 29.51C.11 13.21 13.33 0 29.62 0h353.79z" style="fill:#00aeef"/>
        </g>
        <path class="text" d="M126.11 200.41v-.5c0-48.42 35.56-91.29 88.52-91.29 29.76 0 48.17 8.57 65.82 23.45l-12.86 15.13c-13.62-11.85-28.75-20.17-53.71-20.17-39.09 0-67.08 33.04-67.08 72.38v.5c0 42.11 26.98 73.38 69.85 73.38 20.17 0 38.84-7.82 50.94-17.65v-43.88h-53.71v-17.9h72.88v70.36c-16.39 14.63-41.11 26.98-70.86 26.98-55.5 0-89.79-40.35-89.79-90.79z" id="G"/>
        <path class="text" d="m319.06 354.81 6.3-5.86c3.66 4.32 7.77 6.74 13.48 6.74 5.06 0 8.87-3.08 8.87-7.77v-.15c0-5.06-4.62-7.91-11.8-7.91h-4.18l-1.47-5.64 13.85-14.73h-22.2v-7.84h33.93v6.74l-14.29 14.65c7.77.95 15.09 4.91 15.09 14.36v.15c0 9.45-7.25 16.27-17.95 16.27-8.94.01-15.31-3.73-19.63-9.01z" id="_x33_"/>
    </g>
</svg>
