<svg version="1.1" id="scrabble" xmlns="http://www.w3.org/2000/svg" x="0" y="0" viewBox="0 0 438.47 438.47" style="enable-background:new 0 0 438.47 438.47" xml:space="preserve">
    <style>
        .st6{fill:#414042}
    </style>
    <g id="scrabbleTile">
        <g id="highlightedTile">
            <path id="side" d="M429.94 34.34 404.21 8.62a29.45 29.45 0 0 1 8.64 20.89l-.11 353.79c-.01 16.29-13.17 29.45-29.46 29.45H29.5c-8.16 0-15.54-3.3-20.88-8.64l25.72 25.73a29.45 29.45 0 0 0 20.89 8.64h353.79c16.29 0 29.46-13.16 29.46-29.45l.11-353.79c-.12-8.16-3.31-15.55-8.65-20.9z" style="fill:#1c75bc"/>
            <path id="top" d="M383.41 0c16.29 0 29.45 13.21 29.44 29.51l-.11 353.79c-.01 16.29-13.17 29.45-29.46 29.45H29.5C13.2 412.74 0 399.58 0 383.29L.11 29.51C.11 13.21 13.33 0 29.62 0h353.79z" style="fill:#00aeef"/>
        </g>
        <path class="st6" d="m151.7 258.16 14.37-12.36c10.84 16.39 21.94 25.22 40.35 25.22 19.92 0 34.55-14.37 34.55-42.37V110.38h20.17V228.4c0 20.68-6.05 36.31-16.14 46.4-9.83 9.58-23.2 14.63-38.84 14.63-26.47 0-43.36-13.11-54.46-31.27z" id="J"/>
        <path class="st6" d="m311 320.89-9.23 2.56-1.91-7.33 13.85-4.4h6.23v51.66H311v-42.49zm20.15 17v-.15c0-14.65 8.94-26.52 22.42-26.52 13.41 0 22.27 11.72 22.27 26.38v.14c0 14.66-8.94 26.53-22.42 26.53-13.48 0-22.27-11.73-22.27-26.38zm35.39 0v-.15c0-10.11-5.2-18.39-13.12-18.39-7.91 0-12.97 8.06-12.97 18.25v.14c0 10.11 5.13 18.39 13.12 18.39 7.99 0 12.97-8.2 12.97-18.24z" id="_x31_0"/>
    </g>
</svg>
