<svg version="1.1" id="scrabble" xmlns="http://www.w3.org/2000/svg" x="0" y="0" viewBox="0 0 438.47 438.47" style="enable-background:new 0 0 438.47 438.47" xml:space="preserve">
    <style>
        .st0{display:none}.st5{fill:#414042}.st5,.st7{display:inline}
    </style>
    <g id="scrabbleTile">
        <g id="tile">
            <path id="side" d="M429.94 34.34 404.21 8.62a29.45 29.45 0 0 1 8.64 20.89l-.11 353.79c-.01 16.29-13.17 29.45-29.46 29.45H29.5c-8.16 0-15.54-3.3-20.88-8.64l25.72 25.73a29.45 29.45 0 0 0 20.89 8.64h353.79c16.29 0 29.46-13.16 29.46-29.45l.11-353.79c-.12-8.16-3.31-15.55-8.65-20.9z" style="fill:#bbad94"/>
            <path id="top" d="M383.41 0c16.29 0 29.45 13.21 29.44 29.51l-.11 353.79c-.01 16.29-13.17 29.45-29.46 29.45H29.5C13.21 412.75 0 399.59 0 383.3L.11 29.51C.11 13.21 13.33 0 29.62 0h353.79z" style="fill:#e8d7ba"/>
        </g>
        <path d="m140.23 262.45 12.36-14.63c18.41 16.64 36.06 24.97 60.52 24.97 23.71 0 39.34-12.61 39.34-30.01v-.51c0-16.39-8.83-25.72-45.9-33.54-40.6-8.83-59.26-21.94-59.26-50.94v-.5c0-27.74 24.46-48.17 58-48.17 25.72 0 44.13 7.31 62.04 21.69l-11.6 15.38c-16.39-13.37-32.78-19.17-50.94-19.17-22.95 0-37.57 12.61-37.57 28.5v.5c0 16.64 9.08 25.97 47.91 34.3 39.34 8.57 57.5 22.95 57.5 49.93v.51c0 30.26-25.22 49.93-60.27 49.93-28 0-50.95-9.33-72.13-28.24z" id="S" style="fill:#414042"/>
    </g>
</svg>
