<svg version="1.1" id="scrabble" xmlns="http://www.w3.org/2000/svg" x="0" y="0" viewBox="0 0 438.47 438.47" style="enable-background:new 0 0 438.47 438.47" xml:space="preserve">
    <style>
        .st6{fill:#414042}
    </style>
    <g id="scrabbleTile">
        <g id="tile">
            <path id="side" d="M429.94 34.34 404.21 8.62a29.45 29.45 0 0 1 8.64 20.89l-.11 353.79c-.01 16.29-13.17 29.45-29.46 29.45H29.5c-8.16 0-15.54-3.3-20.88-8.64l25.72 25.73a29.45 29.45 0 0 0 20.89 8.64h353.79c16.29 0 29.46-13.16 29.46-29.45l.11-353.79c-.12-8.16-3.31-15.55-8.65-20.9z" style="fill:#bbad94"/>
            <path id="top" d="M383.41 0c16.29 0 29.45 13.21 29.44 29.51l-.11 353.79c-.01 16.29-13.17 29.45-29.46 29.45H29.5C13.21 412.75 0 399.59 0 383.3L.11 29.51C.11 13.21 13.33 0 29.62 0h353.79z" style="fill:#e8d7ba"/>
        </g>
        <path class="st6" d="M146.78 111.65h19.92v158.12h99.36v18.41H146.78V111.65z" id="L"/>
        <path class="st6" d="m319.31 356.65 17.66-15.02c7.03-6.01 9.6-9.23 9.6-13.85 0-5.06-3.59-7.99-8.28-7.99-4.69 0-7.91 2.56-11.8 7.69l-6.45-5.06c4.91-6.81 9.75-10.7 18.9-10.7 10.04 0 16.93 6.16 16.93 15.31v.15c0 8.06-4.25 12.46-13.34 19.86l-10.55 8.79h24.4v7.91H319.3v-7.09z" id="_x32_"/>
    </g>
</svg>
