<svg version="1.1" id="scrabble" xmlns="http://www.w3.org/2000/svg" x="0" y="0" viewBox="0 0 438.47 438.47" style="enable-background:new 0 0 438.47 438.47" xml:space="preserve">
    <style>
        .st0{display:none}.st5{fill:#414042}.st5,.st7{display:inline}
    </style>
    <g id="scrabbleTile">
        <g id="tile">
            <path id="side" d="M429.94 34.34 404.21 8.62a29.45 29.45 0 0 1 8.64 20.89l-.11 353.79c-.01 16.29-13.17 29.45-29.46 29.45H29.5c-8.16 0-15.54-3.3-20.88-8.64l25.72 25.73a29.45 29.45 0 0 0 20.89 8.64h353.79c16.29 0 29.46-13.16 29.46-29.45l.11-353.79c-.12-8.16-3.31-15.55-8.65-20.9z" style="fill:#bbad94"/>
            <path id="top" d="M383.41 0c16.29 0 29.45 13.21 29.44 29.51l-.11 353.79c-.01 16.29-13.17 29.45-29.46 29.45H29.5C13.21 412.75 0 399.59 0 383.3L.11 29.51C.11 13.21 13.33 0 29.62 0h353.79z" style="fill:#e8d7ba"/>
        </g>
        <path d="M140.35 111.65h66.07c39.84 0 66.07 21.18 66.07 55.98v.5c0 38.08-31.77 57.75-69.35 57.75h-42.87v62.29h-19.92V111.65zm63.55 96.08c29.25 0 48.42-15.63 48.42-38.84v-.5c0-25.22-18.91-38.33-47.41-38.33h-44.64v77.67h43.63z" id="P" style="fill:#414042"/>
    </g>
</svg>
