<?xml version="1.0" encoding="utf-8"?>

<svg version="1.1" id="scrabble" xmlns="http://www.w3.org/2000/svg" x="0px" y="0px"
	 viewBox="0 0 438.47 438.47" style="enable-background:new 0 0 438.47 438.47;" xml:space="preserve">
<style type="text/css">
	.st0{display:none;}
	.st1{display:inline;fill:#1C75BC;}
	.st2{display:inline;fill:#00AEEF;}
	.st3{fill:#BBAD94;}
	.st4{fill:#E8D7BA;}
	.st5{display:inline;fill:#414042;}
	.st6{fill:#414042;}
	.st7{display:inline;}
</style>
<g id="scrabbleTile">
	<g id="highlightedTile" class="st0">
		<path id="side" class="st1" d="M429.94,34.34L404.21,8.62c5.34,5.34,8.64,12.73,8.64,20.89l-0.11,353.79
			c-0.01,16.29-13.17,29.45-29.46,29.45H29.5c-8.16,0-15.54-3.3-20.88-8.64l25.72,25.73c5.34,5.34,12.73,8.64,20.89,8.64h353.79
			c16.29,0,29.46-13.16,29.46-29.45l0.11-353.79C438.47,47.08,435.28,39.69,429.94,34.34z"/>
		<path id="top" class="st2" d="M383.41,0c16.29,0,29.45,13.21,29.44,29.51l-0.11,353.79c-0.01,16.29-13.17,29.45-29.46,29.45H29.5
			C13.2,412.74,0,399.58,0,383.29L0.11,29.51C0.11,13.21,13.33,0,29.62,0H383.41z"/>
	</g>
	<g id="tile_00000029007655792493338070000015857826428044154035_">
		<path id="side_00000129169081894021318130000002795455928336889511_" class="st3" d="M429.94,34.34L404.21,8.62
			c5.34,5.34,8.64,12.73,8.64,20.89l-0.11,353.79c-0.01,16.29-13.17,29.45-29.46,29.45H29.5c-8.16,0-15.54-3.3-20.88-8.64
			l25.72,25.73c5.34,5.34,12.73,8.64,20.89,8.64h353.79c16.29,0,29.46-13.16,29.46-29.45l0.11-353.79
			C438.47,47.08,435.28,39.69,429.94,34.34z"/>
		<path id="top_00000111908945748028226780000004154523604860632498_" class="st4" d="M383.41,0c16.29,0,29.45,13.21,29.44,29.51
			l-0.11,353.79c-0.01,16.29-13.17,29.45-29.46,29.45H29.5c-16.29,0-29.5-13.16-29.5-29.45L0.11,29.51C0.11,13.21,13.33,0,29.62,0
			H383.41z"/>
	</g>
	<g id="Z" class="st0">
		<path class="st5" d="M135.69,274.81l114.24-145.26H139.47v-17.9h137.69v13.37L162.67,270.27h114.49v17.91H135.69V274.81z"/>
	</g>
	<g id="Y" class="st0">
		<path class="st5" d="M196.34,218.32l-73.38-106.67h24.21l59.51,88.26l60.02-88.26h23.2l-73.38,106.42v70.11h-20.17V218.32z"/>
	</g>
	<g id="X" class="st0">
		<path class="st5" d="M283.72,111.65l-65.06,86.5l67.58,90.03h-23.7l-56.49-76.16l-56.49,76.16h-22.95l67.58-90.03l-65.06-86.5
			h23.45l53.97,72.63l53.97-72.63H283.72z"/>
	</g>
	<g id="W">
		<path class="st6" d="M78.06,111.27h21.69l50.44,147.02l48.42-147.53H215l48.42,147.53l50.44-147.02h20.93l-63.05,177.79h-16.9
			l-48.42-143.24l-48.67,143.24h-16.64L78.06,111.27z"/>
	</g>
	<g id="V" class="st0">
		<path class="st5" d="M121.69,111.01h22.19l62.79,152.07l63.05-152.07h21.44L215.25,288.8H197.6L121.69,111.01z"/>
	</g>
	<g id="U" class="st0">
		<path class="st5" d="M132.91,212.9V110.26h19.92v101.38c0,38.08,20.43,59.51,53.97,59.51c32.53,0,53.21-19.67,53.21-58.25V110.26
			h19.92v101.12c0,51.45-29.51,78.18-73.64,78.18C162.67,289.56,132.91,262.83,132.91,212.9z"/>
	</g>
	<g id="T" class="st0">
		<path class="st5" d="M196.34,130.05h-59.26v-18.41h138.7v18.41h-59.26v158.12h-20.17V130.05z"/>
	</g>
	<g id="S" class="st0">
		<path class="st5" d="M140.23,262.45l12.36-14.63c18.41,16.64,36.06,24.97,60.52,24.97c23.71,0,39.34-12.61,39.34-30.01v-0.51
			c0-16.39-8.83-25.72-45.9-33.54c-40.6-8.83-59.26-21.94-59.26-50.94v-0.5c0-27.74,24.46-48.17,58-48.17
			c25.72,0,44.13,7.31,62.04,21.69l-11.6,15.38c-16.39-13.37-32.78-19.17-50.94-19.17c-22.95,0-37.57,12.61-37.57,28.5v0.5
			c0,16.64,9.08,25.97,47.91,34.3c39.34,8.57,57.5,22.95,57.5,49.93v0.51c0,30.26-25.22,49.93-60.27,49.93
			C184.36,290.69,161.41,281.36,140.23,262.45z"/>
	</g>
	<g id="R" class="st0">
		<path class="st5" d="M133.42,111.65h75.91c21.69,0,39.09,6.56,50.18,17.65c8.57,8.57,13.62,20.93,13.62,34.8v0.5
			c0,29.25-20.17,46.4-47.91,51.45l54.22,72.12h-24.46l-51.19-68.59h-50.44v68.59h-19.92V111.65z M207.56,201.68
			c26.48,0,45.39-13.62,45.39-36.31v-0.5c0-21.69-16.64-34.8-45.14-34.8h-54.47v71.62H207.56z"/>
	</g>
	<g id="Q" class="st0">
		<path class="st5" d="M283.97,292.33l-23.45-20.93c-14.88,11.6-33.79,18.66-55.48,18.66c-53.71,0-89.78-42.12-89.78-90.79v-0.5
			c0-48.67,36.57-91.29,90.28-91.29c53.71,0,89.78,42.11,89.78,90.79v0.5c0,21.94-7.82,42.87-20.93,59.01l23.2,19.67L283.97,292.33z
			 M246.4,258.54l-33.04-28.24l13.37-14.88l33.04,30.01c9.58-12.61,14.88-28.5,14.88-46.15v-0.5c0-40.1-29.25-72.88-69.6-72.88
			c-40.35,0-69.1,32.28-69.1,72.38v0.5c0,40.1,29.25,72.88,69.6,72.88C221.18,271.65,235.3,266.86,246.4,258.54z"/>
	</g>
	<g id="P" class="st0">
		<path class="st5" d="M140.35,111.65h66.07c39.84,0,66.07,21.18,66.07,55.98v0.5c0,38.08-31.77,57.75-69.35,57.75h-42.87v62.29
			h-19.92V111.65z M203.9,207.73c29.25,0,48.42-15.63,48.42-38.84v-0.5c0-25.22-18.91-38.33-47.41-38.33h-44.64v77.67H203.9z"/>
	</g>
	<g id="O" class="st0">
		<path class="st5" d="M116.4,200.41v-0.5c0-48.67,36.57-91.29,90.28-91.29c53.71,0,89.78,42.11,89.78,90.79v0.5
			c0,48.67-36.57,91.29-90.28,91.29C152.46,291.2,116.4,249.08,116.4,200.41z M275.78,200.41v-0.5c0-40.1-29.25-72.88-69.6-72.88
			c-40.35,0-69.1,32.28-69.1,72.38v0.5c0,40.1,29.25,72.88,69.6,72.88C247.03,272.79,275.78,240.51,275.78,200.41z"/>
	</g>
	<g id="N" class="st0">
		<path class="st5" d="M131.78,111.65h18.66l111.21,141.47V111.65h19.42v176.53h-15.89L151.2,143.42v144.75h-19.42V111.65z"/>
	</g>
	<g id="M" class="st0">
		<path class="st5" d="M121.94,111.65h20.17l64.31,96.33l64.31-96.33h20.17v176.53h-19.92V145.19l-64.31,94.57h-1.01l-64.31-94.32
			v142.73h-19.42V111.65z"/>
	</g>
	<g id="L" class="st0">
		<path class="st5" d="M146.78,111.65h19.92v158.12h99.36v18.41H146.78V111.65z"/>
	</g>
	<g id="K" class="st0">
		<path class="st5" d="M131.27,111.65h19.92v105.41l101.38-105.41h25.72l-75.65,77.17l78.93,99.36h-24.97l-67.84-85.49l-37.58,38.08
			v47.41h-19.92V111.65z"/>
	</g>
	<g id="J" class="st0">
		<path class="st5" d="M151.7,258.16l14.37-12.36c10.84,16.39,21.94,25.22,40.35,25.22c19.92,0,34.55-14.37,34.55-42.37V110.38
			h20.17v118.02c0,20.68-6.05,36.31-16.14,46.4c-9.83,9.58-23.2,14.63-38.84,14.63C179.69,289.43,162.8,276.32,151.7,258.16z"/>
	</g>
	<g id="I" class="st0">
		<path class="st5" d="M196.46,111.65h19.92v176.53h-19.92V111.65z"/>
	</g>
	<g id="H" class="st0">
		<path class="st5" d="M135.56,111.65h19.92v78.43h101.88v-78.43h19.92v176.53h-19.92v-79.44H155.48v79.44h-19.92V111.65z"/>
	</g>
	<g id="G" class="st0">
		<path class="st5" d="M126.11,200.41v-0.5c0-48.42,35.56-91.29,88.52-91.29c29.76,0,48.17,8.57,65.82,23.45l-12.86,15.13
			c-13.62-11.85-28.75-20.17-53.71-20.17c-39.09,0-67.08,33.04-67.08,72.38v0.5c0,42.11,26.98,73.38,69.85,73.38
			c20.17,0,38.84-7.82,50.94-17.65v-43.88h-53.71v-17.9h72.88v70.36c-16.39,14.63-41.11,26.98-70.86,26.98
			C160.4,291.2,126.11,250.85,126.11,200.41z"/>
	</g>
	<g id="F" class="st0">
		<path class="st5" d="M143,111.65h126.85v18.41H162.92v63.05h95.58v18.16h-95.58v76.92H143V111.65z"/>
	</g>
	<g id="E" class="st0">
		<path class="st5" d="M141.99,111.65H269.6v18.16H161.92v60.27h96.33v18.16h-96.33v61.78h108.94v18.16H141.99V111.65z"/>
	</g>
	<g id="D" class="st0">
		<path class="st5" d="M128.88,111.65h61.28c55.48,0,93.81,38.08,93.81,87.76v0.5c0,49.68-38.33,88.26-93.81,88.26h-61.28V111.65z
			 M148.8,130.06v139.71h41.36c44.64,0,73.13-30.26,73.13-69.35v-0.5c0-39.09-28.5-69.85-73.13-69.85H148.8z"/>
	</g>
	<g id="C" class="st0">
		<path class="st5" d="M126.86,200.41v-0.5c0-49.93,37.32-91.29,89.27-91.29c32.03,0,51.19,11.35,68.85,27.99l-13.62,14.63
			c-14.88-14.12-31.52-24.21-55.48-24.21c-39.09,0-68.34,31.78-68.34,72.38v0.5c0,40.85,29.5,72.88,68.34,72.88
			c24.21,0,40.1-9.33,56.99-25.47l13.11,12.86c-18.41,18.66-38.58,31.02-70.61,31.02C164.44,291.2,126.86,251.1,126.86,200.41z"/>
	</g>
	<g id="B" class="st0">
		<path class="st5" d="M135.18,111.65h75.15c20.17,0,36.06,5.8,46.15,15.64c7.31,7.57,11.35,16.9,11.35,28.24v0.5
			c0,22.95-14.12,34.8-27.99,40.85c20.93,6.3,37.83,18.41,37.83,42.62v0.5c0,30.26-25.47,48.17-64.05,48.17h-78.43V111.65z
			 M247.66,158.3c0-17.4-13.87-28.75-39.09-28.75h-53.71v60.78h52.2c23.96,0,40.6-10.84,40.6-31.52V158.3z M210.59,207.98h-55.73
			v62.29h59.26c26.73,0,43.38-11.85,43.38-31.52v-0.5C257.49,219.08,241.35,207.98,210.59,207.98z"/>
	</g>
	<g id="A" class="st0">
		<path class="st5" d="M197.09,111.02h18.66L296.2,288.8h-21.44l-20.68-46.65h-96.08l-20.93,46.65h-20.43L197.09,111.02z
			 M246.27,223.99l-40.1-89.78l-40.35,89.78H246.27z"/>
	</g>
	<g id="_x31_0" class="st0">
		<g class="st7">
			<g>
				<path class="st6" d="M311,320.89l-9.23,2.56l-1.91-7.33l13.85-4.4h6.23v51.66H311V320.89z"/>
				<path class="st6" d="M331.15,337.89v-0.15c0-14.65,8.94-26.52,22.42-26.52c13.41,0,22.27,11.72,22.27,26.38v0.14
					c0,14.66-8.94,26.53-22.42,26.53C339.94,364.27,331.15,352.54,331.15,337.89z M366.54,337.89v-0.15
					c0-10.11-5.2-18.39-13.12-18.39c-7.91,0-12.97,8.06-12.97,18.25v0.14c0,10.11,5.13,18.39,13.12,18.39
					C361.56,356.13,366.54,347.93,366.54,337.89z"/>
			</g>
		</g>
	</g>
	<g id="_x38_" class="st0">
		<g class="st7">
			<g>
				<path class="st6" d="M318.29,349.39v-0.15c0-6.16,3.44-10.04,9.23-12.46c-4.32-2.27-7.47-5.71-7.47-11.43v-0.14
					c0-7.84,7.55-13.85,17.81-13.85c10.26,0,17.81,5.94,17.81,13.85v0.14c0,5.71-3.15,9.16-7.47,11.43
					c5.64,2.56,9.23,6.23,9.23,12.31v0.15c0,9.16-8.35,14.88-19.56,14.88C326.64,364.12,318.29,358.26,318.29,349.39z
					 M348.62,348.88v-0.15c0-4.69-4.69-7.77-10.77-7.77c-6.08,0-10.7,3.08-10.7,7.77v0.15c0,4.18,3.96,7.69,10.7,7.69
					C344.59,356.57,348.62,353.13,348.62,348.88z M347.01,326.24v-0.15c0-3.96-3.66-7.18-9.16-7.18c-5.5,0-9.16,3.22-9.16,7.11v0.15
					c0,4.47,3.88,7.62,9.16,7.62C343.13,333.79,347.01,330.64,347.01,326.24z"/>
					C329.9,363.83,323.75,360.68,318.91,355.99z"/>
			</g>
		</g>
	</g>
	<g id="_x35_" class="st0">
		<g class="st7">
			<g>
				<path class="st6" d="M318.91,355.99l5.57-6.52c4.1,3.81,8.43,6.15,13.19,6.15c6.16,0,10.18-3.52,10.18-8.87v-0.15
					c0-5.2-4.4-8.5-10.62-8.5c-3.66,0-6.82,1.03-9.45,2.27l-5.42-3.59l1.47-25.13h30.7v7.99h-22.94l-0.81,12.02
					c2.42-0.88,4.69-1.47,8.13-1.47c9.96,0,17.88,5.28,17.88,16.12v0.15c0,10.48-7.69,17.37-19.05,17.37
					C329.9,363.83,323.75,360.68,318.91,355.99z"/>
			</g>
		</g>
	</g>
	<g id="_x34_" class="st0">
		<g class="st7">
			<g>
				<path class="st6" d="M343.64,352.07h-25.87l-1.69-6.45l28.5-33.71h7.69v32.75h7.33v7.4h-7.33v11.5h-8.65V352.07z M343.64,344.67
					v-20.3l-16.85,20.3H343.64z"/>54.81z"/>
			</g>
		</g>
	</g>
	<g id="_x33_" class="st0">
		<g class="st7">
			<g>
				<path class="st6" d="M319.06,354.81l6.3-5.86c3.66,4.32,7.77,6.74,13.48,6.74c5.06,0,8.87-3.08,8.87-7.77v-0.15
					c0-5.06-4.62-7.91-11.8-7.91h-4.18l-1.47-5.64l13.85-14.73h-22.2v-7.84h33.93v6.74l-14.29,14.65
					c7.77,0.95,15.09,4.91,15.09,14.36v0.15c0,9.45-7.25,16.27-17.95,16.27C329.75,363.83,323.38,360.09,319.06,354.81z"/>
			</g>
		</g>
	</g>
	<g id="_x32_" class="st0">
		<g class="st7">
			<g>
				<path class="st6" d="M319.31,356.65l17.66-15.02c7.03-6.01,9.6-9.23,9.6-13.85c0-5.06-3.59-7.99-8.28-7.99
					c-4.69,0-7.91,2.56-11.8,7.69l-6.45-5.06c4.91-6.81,9.75-10.7,18.9-10.7c10.04,0,16.93,6.16,16.93,15.31v0.15
					c0,8.06-4.25,12.46-13.34,19.86l-10.55,8.79h24.4v7.91h-37.08V356.65z"/>
			</g>
		</g>
	</g>
	<g id="_x31__56_" class="st0">
		<g class="st7">
			<g>
				<path class="st6" d="M338.95,321.07l-9.23,2.56l-1.91-7.33l13.85-4.4h6.23v51.66h-8.94V321.07z"/>
			</g>
		</g>
	</g>
</g>
</svg>
