<svg version="1.1" id="scrabble" xmlns="http://www.w3.org/2000/svg" x="0" y="0" viewBox="0 0 438.47 438.47" style="enable-background:new 0 0 438.47 438.47" xml:space="preserve">
    <style>
        .st0{display:none}.st5{fill:#414042}.st5,.st7{display:inline}
    </style>
    <g id="scrabbleTile">
        <g id="tile">
            <path id="side" d="M429.94 34.34 404.21 8.62a29.45 29.45 0 0 1 8.64 20.89l-.11 353.79c-.01 16.29-13.17 29.45-29.46 29.45H29.5c-8.16 0-15.54-3.3-20.88-8.64l25.72 25.73a29.45 29.45 0 0 0 20.89 8.64h353.79c16.29 0 29.46-13.16 29.46-29.45l.11-353.79c-.12-8.16-3.31-15.55-8.65-20.9z" style="fill:#bbad94"/>
            <path id="top" d="M383.41 0c16.29 0 29.45 13.21 29.44 29.51l-.11 353.79c-.01 16.29-13.17 29.45-29.46 29.45H29.5C13.21 412.75 0 399.59 0 383.3L.11 29.51C.11 13.21 13.33 0 29.62 0h353.79z" style="fill:#e8d7ba"/>
        </g>
        <path d="M135.18 111.65h75.15c20.17 0 36.06 5.8 46.15 15.64 7.31 7.57 11.35 16.9 11.35 28.24v.5c0 22.95-14.12 34.8-27.99 40.85 20.93 6.3 37.83 18.41 37.83 42.62v.5c0 30.26-25.47 48.17-64.05 48.17h-78.43V111.65zm112.48 46.65c0-17.4-13.87-28.75-39.09-28.75h-53.71v60.78h52.2c23.96 0 40.6-10.84 40.6-31.52v-.51zm-37.07 49.68h-55.73v62.29h59.26c26.73 0 43.38-11.85 43.38-31.52v-.5c-.01-19.17-16.15-30.27-46.91-30.27z" id="B" style="fill:#414042"/>
    </g>
</svg>
