<svg version="1.1" id="scrabble" xmlns="http://www.w3.org/2000/svg" x="0" y="0" viewBox="0 0 438.47 438.47" style="enable-background:new 0 0 438.47 438.47" xml:space="preserve">
    <style>
        .st0{display:none}.st5{fill:#414042}.st5,.st7{display:inline}
    </style>
    <g id="scrabbleTile">
        <g id="tile">
            <path id="side" d="M429.94 34.34 404.21 8.62a29.45 29.45 0 0 1 8.64 20.89l-.11 353.79c-.01 16.29-13.17 29.45-29.46 29.45H29.5c-8.16 0-15.54-3.3-20.88-8.64l25.72 25.73a29.45 29.45 0 0 0 20.89 8.64h353.79c16.29 0 29.46-13.16 29.46-29.45l.11-353.79c-.12-8.16-3.31-15.55-8.65-20.9z" style="fill:#bbad94"/>
            <path id="top" d="M383.41 0c16.29 0 29.45 13.21 29.44 29.51l-.11 353.79c-.01 16.29-13.17 29.45-29.46 29.45H29.5C13.21 412.75 0 399.59 0 383.3L.11 29.51C.11 13.21 13.33 0 29.62 0h353.79z" style="fill:#e8d7ba"/>
        </g>
        <path d="M133.42 111.65h75.91c21.69 0 39.09 6.56 50.18 17.65 8.57 8.57 13.62 20.93 13.62 34.8v.5c0 29.25-20.17 46.4-47.91 51.45l54.22 72.12h-24.46l-51.19-68.59h-50.44v68.59h-19.92V111.65zm74.14 90.03c26.48 0 45.39-13.62 45.39-36.31v-.5c0-21.69-16.64-34.8-45.14-34.8h-54.47v71.62h54.22z" id="R" style="fill:#414042"/>
    </g>
</svg>
